<svg width="159" height="63" viewBox="0 0 159 63" fill="none" xmlns="http://www.w3.org/2000/svg">
<path d="M1.85543 38.7084V24.4475L0.043149 24.2965V23.3687H5.43685V24.2965L3.49512 24.4475L3.47354 38.73L9.66551 38.5358L10.8306 35.9684L11.5857 36.3568L10.8953 39.7224H0V38.9673L1.85543 38.7084Z" fill="#F3E7E4"/>
<path d="M17.724 27.7484C18.9466 27.7484 19.9247 28.0289 20.6582 28.5898C21.3918 29.1508 21.7585 30.136 21.7585 31.5456L21.737 38.9458H23.0962V39.5498C22.5784 39.8087 21.9743 39.9382 21.2839 39.9382C20.9675 39.9382 20.7301 39.895 20.5719 39.8087C20.4281 39.7224 20.3346 39.5858 20.2914 39.3988C20.2483 39.1975 20.2267 38.8954 20.2267 38.4927C19.4213 39.4707 18.1843 39.9598 16.5159 39.9598C15.8974 39.9598 15.3292 39.8231 14.8114 39.5498C14.308 39.2766 13.9053 38.8954 13.6033 38.4064C13.3156 37.9174 13.1718 37.3636 13.1718 36.7451C13.1718 35.7814 13.5529 35.0047 14.3152 34.415C15.0775 33.8109 15.9909 33.3866 17.0552 33.1421C18.134 32.8832 19.1767 32.7538 20.1836 32.7538V31.7398C20.1836 30.661 19.9175 29.9203 19.3853 29.5176C18.8531 29.1148 18.0908 28.9135 17.0984 28.9135C16.6669 28.9135 16.1419 28.9998 15.5234 29.1724C14.9193 29.3306 14.3871 29.5319 13.9269 29.7765L13.6248 28.9998C14.0995 28.6114 14.7539 28.3094 15.5881 28.0936C16.4224 27.8635 17.1343 27.7484 17.724 27.7484ZM20.162 33.6815C18.8244 33.6815 17.5874 33.8972 16.4511 34.3287C15.3149 34.7459 14.7467 35.4506 14.7467 36.4431C14.7467 38.054 15.66 38.8595 17.4867 38.8595C18.0045 38.8595 18.5079 38.7444 18.997 38.5143C19.5004 38.2841 19.8815 38.0468 20.1404 37.8023L20.162 33.6815Z" fill="#F3E7E4"/>
<path d="M23.5501 28.8272V27.9426H27.9082V28.8272L26.4627 29.0213L29.0301 35.1917L30.0657 38.2554L31.1013 35.3212L33.345 29.0213L31.9211 28.8487V27.9426H35.934V28.8272L34.7474 29.0213L30.4324 40.0029H29.3321L24.6288 28.9998L23.5501 28.8272Z" fill="#F3E7E4"/>
<path d="M41.785 27.7484C43.0076 27.7484 43.9856 28.0289 44.7192 28.5898C45.4527 29.1508 45.8195 30.136 45.8195 31.5456L45.7979 38.9458H47.1571V39.5498C46.6393 39.8087 46.0352 39.9382 45.3448 39.9382C45.0284 39.9382 44.7911 39.895 44.6329 39.8087C44.489 39.7224 44.3956 39.5858 44.3524 39.3988C44.3093 39.1975 44.2877 38.8954 44.2877 38.4927C43.4822 39.4707 42.2453 39.9598 40.5768 39.9598C39.9583 39.9598 39.3902 39.8231 38.8724 39.5498C38.369 39.2766 37.9663 38.8954 37.6642 38.4064C37.3766 37.9174 37.2327 37.3636 37.2327 36.7451C37.2327 35.7814 37.6139 35.0047 38.3762 34.415C39.1385 33.8109 40.0518 33.3866 41.1162 33.1421C42.1949 32.8832 43.2377 32.7538 44.2445 32.7538V31.7398C44.2445 30.661 43.9784 29.9203 43.4463 29.5176C42.9141 29.1148 42.1518 28.9135 41.1593 28.9135C40.7278 28.9135 40.2029 28.9998 39.5844 29.1724C38.9803 29.3306 38.4481 29.5319 37.9878 29.7765L37.6858 28.9998C38.1604 28.6114 38.8149 28.3094 39.6491 28.0936C40.4833 27.8635 41.1953 27.7484 41.785 27.7484ZM44.223 33.6815C42.8853 33.6815 41.6484 33.8972 40.5121 34.3287C39.3758 34.7459 38.8077 35.4506 38.8077 36.4431C38.8077 38.054 39.721 38.8595 41.5477 38.8595C42.0655 38.8595 42.5689 38.7444 43.0579 38.5143C43.5613 38.2841 43.9425 38.0468 44.2014 37.8023L44.223 33.6815Z" fill="#F3E7E4"/>
<path d="M70.5376 0H65.7867L63.7991 10.3924H72.5737L70.5376 0Z" fill="#F3E7E4"/>
<path d="M74.8037 45.1515H61.6176L64.3808 53.1504L59.7754 63H76.8398L72.3313 53.1504L74.8037 45.1515Z" fill="#F3E7E4"/>
<path d="M67.7253 16.0159C67.7253 17.8098 66.2711 19.264 64.4773 19.264C62.6834 19.264 61.2292 17.8098 61.2292 16.0159C61.2292 14.2221 62.6834 12.7679 64.4773 12.7679C66.2711 12.7679 67.7253 14.2221 67.7253 16.0159Z" fill="#F3E7E4"/>
<path d="M69.2896 38.9134C69.2896 40.7007 67.8407 42.1496 66.0534 42.1496C64.2661 42.1496 62.8172 40.7007 62.8172 38.9134C62.8172 37.1261 64.2661 35.6772 66.0534 35.6772C67.8407 35.6772 69.2896 37.1261 69.2896 38.9134Z" fill="#F3E7E4"/>
<path d="M76.8393 26.6812C76.8393 30.0279 74.1262 32.741 70.7795 32.741C67.4327 32.741 64.7197 30.0279 64.7197 26.6812C64.7197 23.3344 67.4327 20.6214 70.7795 20.6214C74.1262 20.6214 76.8393 23.3344 76.8393 26.6812Z" fill="#F3E7E4"/>
<path d="M60.6605 38.0149V38.0251C60.6605 38.8704 61.0137 40.2187 61.4777 41.6108C61.7018 42.283 61.9388 42.9293 62.1461 43.4819C62.2072 43.6448 62.2669 43.8028 62.3233 43.952L62.369 44.0727H74.0577L74.1015 43.9535C74.2848 43.4528 74.5287 42.7657 74.7719 42.018C75.0159 41.2683 75.2555 40.4692 75.433 39.7418C75.6157 38.9934 75.7128 38.3982 75.7128 38.0251C75.7128 38.0251 75.7128 38.0223 75.7126 38.015C75.7124 38.0078 75.712 37.998 75.7113 37.9853C75.7099 37.9595 75.7076 37.9259 75.7042 37.8834C75.6973 37.7982 75.719 37.7317 75.7042 37.5959C75.6746 37.3244 75.5981 36.9243 75.5409 36.4921C75.4267 35.6288 75.2629 34.4828 75.0654 33.1497C74.976 32.5458 74.8798 31.9043 74.7784 31.2343C75.1277 30.9273 75.4414 30.5806 75.7125 30.2014C76.3301 34.2508 76.7916 37.4639 76.7916 38.0251C76.7916 40.0612 74.8037 45.1515 74.8037 45.1515H61.6176C61.551 44.9602 61.4477 44.6862 61.3217 44.3531C60.713 42.7436 59.5817 39.7521 59.5817 38.0251C59.5424 35.9519 61.012 26.5428 62.3775 18.4942C62.6697 18.742 63.0064 18.9391 63.3738 19.0718C62.9724 21.4451 62.5642 23.9234 62.1903 26.2862C61.7513 29.0607 61.3603 31.6701 61.0827 33.7609C60.8002 35.8891 60.6486 37.3882 60.6603 38.0047L60.6605 38.0149Z" fill="#F3E7E4"/>
<path d="M74.4071 21.8267C73.4522 15.7931 72.5737 10.3924 72.5737 10.3924H63.7991C63.656 11.1745 63.5 12.0425 63.3346 12.9745C63.687 12.8421 64.0686 12.7691 64.467 12.7679C64.5471 12.3184 64.6248 11.8853 64.6997 11.4712H71.656L71.6903 11.6825C71.8056 12.3948 71.9703 13.4142 72.1679 14.6428C72.4593 16.454 72.8222 18.7196 73.2039 21.1258C73.6332 21.3134 74.0366 21.5494 74.4071 21.8267Z" fill="#F3E7E4"/>
<path d="M90.941 38.7084V24.4475L89.1287 24.2965V23.3687H94.5225V24.2965L92.5807 24.4475L92.5592 38.73L98.7511 38.5358L99.9162 35.9684L100.671 36.3568L99.9809 39.7224H89.0856V38.9673L90.941 38.7084Z" fill="#F3E7E4"/>
<path d="M106.81 27.7484C108.032 27.7484 109.01 28.0289 109.744 28.5898C110.477 29.1508 110.844 30.136 110.844 31.5456L110.823 38.9458H112.182V39.5498C111.664 39.8087 111.06 39.9382 110.369 39.9382C110.053 39.9382 109.816 39.895 109.658 39.8087C109.514 39.7224 109.42 39.5858 109.377 39.3988C109.334 39.1975 109.312 38.8954 109.312 38.4927C108.507 39.4707 107.27 39.9598 105.601 39.9598C104.983 39.9598 104.415 39.8231 103.897 39.5498C103.394 39.2766 102.991 38.8954 102.689 38.4064C102.401 37.9174 102.257 37.3636 102.257 36.7451C102.257 35.7814 102.639 35.0047 103.401 34.415C104.163 33.8109 105.076 33.3866 106.141 33.1421C107.22 32.8832 108.262 32.7538 109.269 32.7538V31.7398C109.269 30.661 109.003 29.9203 108.471 29.5176C107.939 29.1148 107.176 28.9135 106.184 28.9135C105.752 28.9135 105.227 28.9998 104.609 29.1724C104.005 29.3306 103.473 29.5319 103.012 29.7765L102.71 28.9998C103.185 28.6114 103.84 28.3094 104.674 28.0936C105.508 27.8635 106.22 27.7484 106.81 27.7484ZM109.248 33.6815C107.91 33.6815 106.673 33.8972 105.537 34.3287C104.4 34.7459 103.832 35.4506 103.832 36.4431C103.832 38.054 104.746 38.8595 106.572 38.8595C107.09 38.8595 107.594 38.7444 108.083 38.5143C108.586 38.2841 108.967 38.0468 109.226 37.8023L109.248 33.6815Z" fill="#F3E7E4"/>
<path d="M115.886 38.7732V29.6686L114.355 28.9998V28.4604L116.9 27.77L117.289 27.9857V29.4313C117.821 29.0141 118.504 28.633 119.338 28.2878C120.173 27.9426 120.935 27.7628 121.625 27.7484C122.373 27.7197 122.97 27.8203 123.416 28.0505C123.862 28.2662 124.214 28.6474 124.473 29.1939C124.962 28.8344 125.631 28.5107 126.48 28.2231C127.328 27.921 128.083 27.7628 128.745 27.7484C129.622 27.7053 130.313 27.8491 130.816 28.1799C131.32 28.4964 131.679 29.0213 131.895 29.7549C132.111 30.4884 132.219 31.4953 132.219 32.7754V38.7732L134.009 38.9673V39.7224H129.133V38.9673L130.622 38.7732V33.0774C130.622 32.0706 130.557 31.2795 130.428 30.7042C130.298 30.1288 130.054 29.6974 129.694 29.4097C129.335 29.122 128.81 28.9782 128.119 28.9782C127.098 28.9782 125.976 29.3162 124.754 29.9922C124.926 30.697 125.013 31.5959 125.013 32.6891V38.7947L126.674 38.9673V39.7224H121.841V38.9673L123.438 38.7732V32.8832C123.438 31.9196 123.373 31.1644 123.243 30.6179C123.114 30.0713 122.877 29.6686 122.531 29.4097C122.186 29.1364 121.683 28.9998 121.021 28.9998C120.532 28.9998 119.971 29.1076 119.338 29.3234C118.72 29.5391 118.109 29.8484 117.505 30.2511V38.7732L119.123 38.9673V39.7224H114.419V38.9673L115.886 38.7732Z" fill="#F3E7E4"/>
<path d="M142.766 27.5758C143.586 27.5758 144.341 27.7772 145.031 28.1799C145.736 28.5683 146.304 29.2011 146.736 30.0785C147.182 30.9415 147.405 32.0634 147.405 33.4442C147.405 34.638 147.153 35.7311 146.65 36.7235C146.146 37.716 145.441 38.5071 144.535 39.0968C143.643 39.6721 142.622 39.9598 141.472 39.9598C140.666 39.9598 139.868 39.8159 139.077 39.5283L139.12 42.5703V44.1669L141.321 44.361V45.1161H135.97V44.361L137.523 44.1453V29.6686L136.013 28.9998V28.4604L138.516 27.77L138.926 27.9857V29.1724C139.357 28.7409 139.904 28.3669 140.565 28.0505C141.227 27.734 141.961 27.5758 142.766 27.5758ZM142.119 28.7193C141.443 28.7193 140.867 28.8416 140.393 29.0861C139.933 29.3162 139.494 29.6039 139.077 29.9491L139.098 38.0828C139.285 38.3704 139.587 38.6077 140.005 38.7947C140.422 38.9673 140.954 39.0608 141.601 39.0752C142.335 39.0752 143.018 38.8882 143.651 38.5143C144.283 38.1259 144.794 37.5146 145.182 36.6804C145.585 35.8318 145.787 34.7602 145.787 33.4657C145.787 31.8404 145.434 30.6466 144.729 29.8843C144.025 29.1076 143.154 28.7193 142.119 28.7193Z" fill="#F3E7E4"/>
<path d="M151.062 36.7667L151.407 38.1475C151.781 38.4495 152.177 38.6653 152.594 38.7947C153.011 38.9242 153.486 38.9889 154.018 38.9889C154.867 38.9889 155.543 38.8091 156.046 38.4495C156.564 38.09 156.823 37.5506 156.823 36.8314C156.823 36.4575 156.715 36.141 156.499 35.8821C156.298 35.6232 156.039 35.4075 155.722 35.2349C155.406 35.0479 154.974 34.8322 154.428 34.5876L153.673 34.2424C152.68 33.7822 151.896 33.2932 151.321 32.7754C150.746 32.2432 150.458 31.5744 150.458 30.7689C150.458 30.0641 150.667 29.4744 151.084 28.9998C151.501 28.5251 152.026 28.1727 152.659 27.9426C153.306 27.6981 153.968 27.5758 154.644 27.5758C155.277 27.5758 155.866 27.6549 156.413 27.8132C156.959 27.957 157.391 28.1368 157.707 28.3525V30.4669H157.017L156.629 29.2371C156.14 28.7481 155.464 28.5035 154.601 28.5035C153.781 28.5035 153.133 28.6761 152.659 29.0213C152.199 29.3665 151.968 29.8699 151.968 30.5316C151.968 31.035 152.163 31.4377 152.551 31.7398C152.939 32.0418 153.543 32.3942 154.363 32.7969L154.903 33.0558C155.018 33.1134 155.428 33.3003 156.132 33.6168C156.837 33.9188 157.384 34.3144 157.772 34.8034C158.16 35.2924 158.355 35.8534 158.355 36.4862C158.355 37.5937 157.937 38.4567 157.103 39.0752C156.283 39.6793 155.219 39.9813 153.91 39.9813C152.573 39.9813 151.371 39.6793 150.307 39.0752V36.7667H151.062Z" fill="#F3E7E4"/>
</svg>
