<svg width="16" height="37" viewBox="0 0 16 37" fill="none" xmlns="http://www.w3.org/2000/svg">
<path d="M10.1569 0H5.75281L3.91028 6.07042H12.0444L10.1569 0Z" fill="#FC7C03"/>
<path d="M14.1116 24.5916H1.88795L4.44952 28.8539L0.180237 36.5H15.9991L11.8197 28.8539L14.1116 24.5916Z" fill="#FC7C03"/>
<path d="M7.35533 9C7.35533 9.26967 7.19136 9.59272 6.76372 9.87782C6.34059 10.1599 5.7189 10.3553 5 10.3553C4.2811 10.3553 3.65941 10.1599 3.23628 9.87782C2.80864 9.59272 2.64467 9.26967 2.64467 9C2.64467 8.73033 2.80864 8.40728 3.23628 8.12218C3.65941 7.8401 4.2811 7.64467 5 7.64467C5.7189 7.64467 6.34059 7.8401 6.76372 8.12218C7.19136 8.40728 7.35533 8.73033 7.35533 9Z" fill="#FC7C03" stroke="#FC7C03" stroke-width="1.28934"/>
<path d="M8.5 21.2677C8.5 21.4885 8.34002 21.7846 7.87215 22.0536C7.41788 22.3147 6.75705 22.4921 6 22.4921C5.24295 22.4921 4.58212 22.3147 4.12785 22.0536C3.65998 21.7846 3.5 21.4885 3.5 21.2677C3.5 21.0469 3.65998 20.7508 4.12785 20.4819C4.58212 20.2207 5.24295 20.0433 6 20.0433C6.75705 20.0433 7.41788 20.2207 7.87215 20.4819C8.34002 20.7508 8.5 21.0469 8.5 21.2677Z" fill="#FC7C03" stroke="#FC7C03"/>
<path d="M15.3553 15C15.3553 15.58 15.0434 16.1543 14.4416 16.6056C13.8397 17.057 12.9786 17.3553 12 17.3553C11.0214 17.3553 10.1603 17.057 9.55837 16.6056C8.95663 16.1543 8.64467 15.58 8.64467 15C8.64467 14.42 8.95663 13.8457 9.55837 13.3944C10.1603 12.943 11.0214 12.6447 12 12.6447C12.9786 12.6447 13.8397 12.943 14.4416 13.3944C15.0434 13.8457 15.3553 14.42 15.3553 15Z" fill="#FC7C03" stroke="#FC7C03" stroke-width="1.28934"/>
<path fill-rule="evenodd" clip-rule="evenodd" d="M1.00071 20.7779V20.7944C1.00071 20.875 1.03677 21.069 1.16979 21.3921C1.29472 21.6956 1.47261 22.0367 1.67468 22.3851C1.87513 22.7308 2.08878 23.0658 2.2791 23.3575C2.33047 23.4362 2.3824 23.5152 2.43271 23.5917H13.5703C13.7351 23.3322 13.9497 22.9838 14.1629 22.6072C14.384 22.2167 14.594 21.8125 14.746 21.4546C14.8218 21.276 14.8775 21.1222 14.913 20.9967C14.9305 20.9347 14.9415 20.8856 14.9478 20.8484C14.9504 20.8329 14.952 20.8209 14.9529 20.8122L14.9525 20.8093L14.9525 20.8093C14.9496 20.7898 14.9429 20.7452 14.928 20.6665C14.9028 20.5338 14.864 20.3532 14.8118 20.1265C14.7078 19.6746 14.5576 19.0703 14.3751 18.3618C14.2803 17.9939 14.1772 17.5996 14.068 17.1861C14.3999 17.0199 14.6976 16.8318 14.9541 16.6256C15.5266 18.7832 15.9544 20.4954 15.9544 20.7944C15.9544 21.8793 14.1118 24.5917 14.1118 24.5917H1.88818C1.8265 24.4897 1.73044 24.3437 1.61362 24.1662C1.04939 23.3086 0.000714373 21.7146 0.000714462 20.7944C-0.03806 19.6182 1.50881 14.0106 2.83665 9.56488C3.05206 9.61048 3.28489 9.63538 3.52783 9.63538C3.64246 9.63538 3.75484 9.62984 3.8642 9.61919C3.37848 11.2399 2.85846 13.0328 2.39531 14.715C1.98934 16.1895 1.62955 17.5702 1.37518 18.6716C1.24785 19.2229 1.14913 19.6949 1.08428 20.0688C1.01539 20.466 0.997595 20.6833 1.00017 20.7615L1.00071 20.7779ZM13.744 12.1632C12.8587 8.94815 12.0446 6.07042 12.0446 6.07042H3.91048C3.78771 6.45621 3.65445 6.88119 3.51369 7.3362L3.52783 7.33617C3.88655 7.33617 4.22322 7.39046 4.51432 7.48551C4.55824 7.34393 4.60138 7.20547 4.64363 7.07042H11.2876C11.3913 7.43915 11.5299 7.93233 11.6925 8.51341C11.9496 9.43206 12.2668 10.57 12.6018 11.783C13.0098 11.884 13.3928 12.0121 13.744 12.1632Z" fill="#FC7C03"/>
</svg>
