<svg width="490" height="189" viewBox="0 0 490 189" fill="none" xmlns="http://www.w3.org/2000/svg">
<path d="M0.985086 153.04V122.766L76.8906 3.18181H102.991V45.0852H87.544L39.6925 120.813V122.234H147.558V153.04H0.985086ZM88.2543 185V143.807L88.9645 130.401V3.18181H125.009V185H88.2543ZM244.46 188.995C229.19 188.936 216.051 185.178 205.042 177.72C194.093 170.263 185.659 159.461 179.74 145.316C173.881 131.171 170.981 114.155 171.04 94.2685C171.04 74.4413 173.97 57.5438 179.829 43.576C185.748 29.6082 194.182 18.9844 205.131 11.7045C216.14 4.36553 229.249 0.696016 244.46 0.696016C259.671 0.696016 272.751 4.36553 283.7 11.7045C294.708 19.0436 303.172 29.697 309.091 43.6648C315.009 57.5734 317.939 74.4413 317.88 94.2685C317.88 114.214 314.92 131.259 309.002 145.405C303.142 159.55 294.738 170.352 283.789 177.809C272.839 185.266 259.73 188.995 244.46 188.995ZM244.46 157.124C254.877 157.124 263.192 151.886 269.407 141.41C275.621 130.934 278.699 115.22 278.64 94.2685C278.64 80.4782 277.219 68.9962 274.378 59.8224C271.596 50.6487 267.631 43.7535 262.482 39.1371C257.392 34.5206 251.385 32.2124 244.46 32.2124C234.102 32.2124 225.816 37.3911 219.602 47.7486C213.387 58.1061 210.251 73.6127 210.191 94.2685C210.191 108.236 211.582 119.896 214.364 129.247C217.205 138.539 221.2 145.523 226.349 150.199C231.498 154.815 237.535 157.124 244.46 157.124ZM342.538 153.04V122.766L418.443 3.18181H444.544V45.0852H429.097L381.245 120.813V122.234H489.111V153.04H342.538ZM429.807 185V143.807L430.517 130.401V3.18181H466.561V185H429.807Z" fill="black"/>
</svg>
